# xmcd CD database file
#
# Track frame offsets:
#	150
#	29636
#	55794
#	82326
#	101554
#	123701
#	147245
#	169821
#	191529
#	219064
#
# Disc length: 3229 seconds
#
# Revision: 0
# Processed by: cddbd v1.4PL0 Copyright (c) Steve Scherf et al.
# Submitted via: CDex 1.50beta10
#
DISCID=900c9b0a
DTITLE=Salsa Matriz - No Todos Somos Iguales
DYEAR=2003
DGENRE=Salsa
TTITLE0=No todos somos iguales
TTITLE1=Yo tengo un bombo
TTITLE2=Yo te voy a amar
TTITLE3=Quimbombó
TTITLE4=Cristal
TTITLE5=Estoy tranquilo
TTITLE6=Pica Pica o Jiribilla
TTITLE7=La negrita Josefina
TTITLE8=La bola
TTITLE9=El lunar de Lola
EXTD=YEAR: 2003
EXTT0=
EXTT1=
EXTT2=
EXTT3=
EXTT4=
EXTT5=
EXTT6=
EXTT7=
EXTT8=
EXTT9=
PLAYORDER=
